<!-- icon666.com - MILLIONS vector ICONS FREE --><svg viewBox="0 0 32 32" xmlns="http://www.w3.org/2000/svg"><g id="Layer_2" data-name="Layer 2"><path d="m31.2837 5.3867a5.0648 5.0648 0 0 0 -4.6709-4.6709 150.513 150.513 0 0 0 -21.2256 0 5.0648 5.0648 0 0 0 -4.6709 4.6709 150.3629 150.3629 0 0 0 0 21.2256 5.0648 5.0648 0 0 0 4.6709 4.6709 150.1233 150.1233 0 0 0 21.2256 0 5.0648 5.0648 0 0 0 4.6709-4.6709 150.3629 150.3629 0 0 0 0-21.2256zm-1.9951 21.084a3.0172 3.0172 0 0 1 -2.8174 2.8174 148.1257 148.1257 0 0 1 -20.9424 0 3.0172 3.0172 0 0 1 -2.8174-2.8174 148.2754 148.2754 0 0 1 0-20.9424 3.0173 3.0173 0 0 1 2.8174-2.8174 148.1406 148.1406 0 0 1 20.9424 0 3.0173 3.0173 0 0 1 2.8174 2.8174 148.2754 148.2754 0 0 1 0 20.9424z"></path></g><g id="Layer_1" data-name="Layer 1"><path d="m24.95 13.79a1.02 1.02 0 0 0 -.8-.67l-5-.76-2.24-4.78a1.0039 1.0039 0 0 0 -1.82 0l-2.24 4.78-5 .76a1.02 1.02 0 0 0 -.8.67 1.0065 1.0065 0 0 0 .23 1.02l3.65 3.74-.86 5.29a1.0012 1.0012 0 0 0 1.47 1.04l4.46-2.47 4.46 2.47a1.0453 1.0453 0 0 0 1.06-.06 1.0088 1.0088 0 0 0 .41-.98l-.86-5.29 3.65-3.74a1.0065 1.0065 0 0 0 .23-1.02zm-5.67 3.72a1.0147 1.0147 0 0 0 -.27.86l.62 3.76-3.15-1.74a1.0536 1.0536 0 0 0 -.96 0l-3.15 1.74.62-3.76a1.0147 1.0147 0 0 0 -.27-.86l-2.64-2.7 3.6-.55a1.0009 1.0009 0 0 0 .75-.57l1.57-3.34 1.57 3.34a1.0009 1.0009 0 0 0 .75.57l3.6.55z"></path></g></svg>