<!-- icon666.com - MILLIONS vector ICONS FREE --><svg viewBox="0 0 32 32" xmlns="http://www.w3.org/2000/svg"><g id="Layer_2" data-name="Layer 2"><path d="m31.2837 5.3867a5.0648 5.0648 0 0 0 -4.6709-4.6709 150.513 150.513 0 0 0 -21.2256 0 5.0648 5.0648 0 0 0 -4.6709 4.6709 150.3629 150.3629 0 0 0 0 21.2256 5.0648 5.0648 0 0 0 4.6709 4.6709 150.1233 150.1233 0 0 0 21.2256 0 5.0648 5.0648 0 0 0 4.6709-4.6709 150.3629 150.3629 0 0 0 0-21.2256zm-1.9951 21.084a3.0172 3.0172 0 0 1 -2.8174 2.8174 148.1257 148.1257 0 0 1 -20.9424 0 3.0172 3.0172 0 0 1 -2.8174-2.8174 148.2754 148.2754 0 0 1 0-20.9424 3.0173 3.0173 0 0 1 2.8174-2.8174 148.1406 148.1406 0 0 1 20.9424 0 3.0173 3.0173 0 0 1 2.8174 2.8174 148.2754 148.2754 0 0 1 0 20.9424z"></path></g><g id="Layer_1" data-name="Layer 1"><path d="m25.66 15.25-8-7a1.0005 1.0005 0 0 0 -1.66.75v3.05a10.7866 10.7866 0 0 0 -9.55 8.6l-.43 2.15a.9993.9993 0 0 0 1.6.98l2.33-1.86a8.7817 8.7817 0 0 1 5.47-1.92h.58v3a1.0005 1.0005 0 0 0 1.66.75l8-7a.9972.9972 0 0 0 0-1.5zm-7.66 5.55v-1.8a1.0029 1.0029 0 0 0 -1-1h-1.58a10.8062 10.8062 0 0 0 -6.72 2.36l-.16.13a8.7914 8.7914 0 0 1 8.46-6.49 1.0029 1.0029 0 0 0 1-1v-1.8l5.48 4.8z"></path></g></svg>