<!-- icon666.com - MILLIONS vector ICONS FREE --><svg viewBox="0 0 32 32" xmlns="http://www.w3.org/2000/svg"><g id="Layer_2" data-name="Layer 2"><path d="m31.2837 5.3867a5.0648 5.0648 0 0 0 -4.6709-4.6709 150.513 150.513 0 0 0 -21.2256 0 5.0648 5.0648 0 0 0 -4.6709 4.6709 150.3629 150.3629 0 0 0 0 21.2256 5.0648 5.0648 0 0 0 4.6709 4.6709 150.1233 150.1233 0 0 0 21.2256 0 5.0648 5.0648 0 0 0 4.6709-4.6709 150.3629 150.3629 0 0 0 0-21.2256zm-1.9951 21.084a3.0172 3.0172 0 0 1 -2.8174 2.8174 148.1257 148.1257 0 0 1 -20.9424 0 3.0172 3.0172 0 0 1 -2.8174-2.8174 148.2754 148.2754 0 0 1 0-20.9424 3.0173 3.0173 0 0 1 2.8174-2.8174 148.1406 148.1406 0 0 1 20.9424 0 3.0173 3.0173 0 0 1 2.8174 2.8174 148.2754 148.2754 0 0 1 0 20.9424z"></path></g><g id="Layer_1" data-name="Layer 1"><path d="m23 6h-14a3.0088 3.0088 0 0 0 -3 3v14a3.0088 3.0088 0 0 0 3 3h14a3.0088 3.0088 0 0 0 3-3v-14a3.0088 3.0088 0 0 0 -3-3zm1 17a1.0029 1.0029 0 0 1 -1 1h-14a1.0029 1.0029 0 0 1 -1-1v-1.09l3-3 2.79 2.8a1.008 1.008 0 0 0 1.42 0l5.29-5.3 3.5 3.5zm0-5.91-2.79-2.8a1.008 1.008 0 0 0 -1.42 0l-5.29 5.3-2.79-2.8a1.008 1.008 0 0 0 -1.42 0l-2.29 2.3v-10.09a1.0029 1.0029 0 0 1 1-1h14a1.0029 1.0029 0 0 1 1 1z"></path><circle cx="13" cy="12" r="1"></circle></g></svg>