<!-- icon666.com - MILLIONS vector ICONS FREE --><svg viewBox="0 0 32 32" xmlns="http://www.w3.org/2000/svg"><g id="Layer_2" data-name="Layer 2"><path d="m31.2837 5.3867a5.0648 5.0648 0 0 0 -4.6709-4.6709 150.513 150.513 0 0 0 -21.2256 0 5.0648 5.0648 0 0 0 -4.6709 4.6709 150.3629 150.3629 0 0 0 0 21.2256 5.0648 5.0648 0 0 0 4.6709 4.6709 150.1233 150.1233 0 0 0 21.2256 0 5.0648 5.0648 0 0 0 4.6709-4.6709 150.3629 150.3629 0 0 0 0-21.2256zm-1.9951 21.084a3.0172 3.0172 0 0 1 -2.8174 2.8174 148.1257 148.1257 0 0 1 -20.9424 0 3.0172 3.0172 0 0 1 -2.8174-2.8174 148.2754 148.2754 0 0 1 0-20.9424 3.0173 3.0173 0 0 1 2.8174-2.8174 148.1406 148.1406 0 0 1 20.9424 0 3.0173 3.0173 0 0 1 2.8174 2.8174 148.2754 148.2754 0 0 1 0 20.9424z"></path></g><g id="Layer_1" data-name="Layer 1"><path d="m23.12 11.7s-4.82-4.82-4.83-4.82a3.0578 3.0578 0 0 0 -2.12-.88h-5.17a3.0088 3.0088 0 0 0 -3 3v14a3.0088 3.0088 0 0 0 3 3h10a3.0088 3.0088 0 0 0 3-3v-9.17a3.1186 3.1186 0 0 0 -.88-2.13zm-5.12-2.29 2.59 2.59h-2.59zm4 13.59a1.0029 1.0029 0 0 1 -1 1h-10a1.0029 1.0029 0 0 1 -1-1v-14a1.0029 1.0029 0 0 1 1-1h5v4a2.0059 2.0059 0 0 0 2 2h4z"></path></g></svg>