<!-- icon666.com - MILLIONS vector ICONS FREE --><svg viewBox="0 0 32 32" xmlns="http://www.w3.org/2000/svg"><g id="Layer_2" data-name="Layer 2"><path d="m31.2837 5.3867a5.0648 5.0648 0 0 0 -4.6709-4.6709 150.513 150.513 0 0 0 -21.2256 0 5.0648 5.0648 0 0 0 -4.6709 4.6709 150.3629 150.3629 0 0 0 0 21.2256 5.0648 5.0648 0 0 0 4.6709 4.6709 150.1233 150.1233 0 0 0 21.2256 0 5.0648 5.0648 0 0 0 4.6709-4.6709 150.3629 150.3629 0 0 0 0-21.2256zm-1.9951 21.084a3.0172 3.0172 0 0 1 -2.8174 2.8174 148.1257 148.1257 0 0 1 -20.9424 0 3.0172 3.0172 0 0 1 -2.8174-2.8174 148.2754 148.2754 0 0 1 0-20.9424 3.0173 3.0173 0 0 1 2.8174-2.8174 148.1406 148.1406 0 0 1 20.9424 0 3.0173 3.0173 0 0 1 2.8174 2.8174 148.2754 148.2754 0 0 1 0 20.9424z"></path></g><g id="Layer_1" data-name="Layer 1"><path d="m25 14a1.0029 1.0029 0 0 0 1-1v-6a1.0029 1.0029 0 0 0 -1-1h-6a1.0029 1.0029 0 0 0 -1 1v2h-4v-2a1.0029 1.0029 0 0 0 -1-1h-6a1.0029 1.0029 0 0 0 -1 1v6a1.0029 1.0029 0 0 0 1 1h2v4h-2a1.0029 1.0029 0 0 0 -1 1v6a1.0029 1.0029 0 0 0 1 1h6a1.0029 1.0029 0 0 0 1-1v-2h4v2a1.0029 1.0029 0 0 0 1 1h6a1.0029 1.0029 0 0 0 1-1v-6a1.0029 1.0029 0 0 0 -1-1h-2v-4zm-17-2v-4h4v4zm4 12h-4v-4h4zm6-5v2h-4v-2a1.0029 1.0029 0 0 0 -1-1h-2v-4h2a1.0029 1.0029 0 0 0 1-1v-2h4v2a1.0029 1.0029 0 0 0 1 1h2v4h-2a1.0029 1.0029 0 0 0 -1 1zm6 1v4h-4v-4zm-4-8v-4h4v4z"></path></g></svg>