<!-- icon666.com - MILLIONS vector ICONS FREE --><svg viewBox="0 0 32 32" xmlns="http://www.w3.org/2000/svg"><g id="Layer_2" data-name="Layer 2"><path d="m31.2837 5.3867a5.0648 5.0648 0 0 0 -4.6709-4.6709 150.513 150.513 0 0 0 -21.2256 0 5.0648 5.0648 0 0 0 -4.6709 4.6709 150.3629 150.3629 0 0 0 0 21.2256 5.0648 5.0648 0 0 0 4.6709 4.6709 150.1233 150.1233 0 0 0 21.2256 0 5.0648 5.0648 0 0 0 4.6709-4.6709 150.3629 150.3629 0 0 0 0-21.2256zm-1.9951 21.084a3.0172 3.0172 0 0 1 -2.8174 2.8174 148.1257 148.1257 0 0 1 -20.9424 0 3.0172 3.0172 0 0 1 -2.8174-2.8174 148.2754 148.2754 0 0 1 0-20.9424 3.0173 3.0173 0 0 1 2.8174-2.8174 148.1406 148.1406 0 0 1 20.9424 0 3.0173 3.0173 0 0 1 2.8174 2.8174 148.2754 148.2754 0 0 1 0 20.9424z"></path></g><g id="Layer_1" data-name="Layer 1"><path d="m24.1 9.83-2.93-2.93a3.1538 3.1538 0 0 0 -4.35 0l-9.53 9.53a1.0327 1.0327 0 0 0 -.29.71v5.86a1.0029 1.0029 0 0 0 1 1h5.86a1.0327 1.0327 0 0 0 .71-.29l9.53-9.53a3.0781 3.0781 0 0 0 0-4.35zm-10.65 12.17h-4.45v-4.45l7.06-7.06 4.45 4.45zm9.24-9.24-.76.76-4.45-4.45.76-.76a1.1 1.1 0 0 1 1.51 0l2.94 2.94a1.0806 1.0806 0 0 1 0 1.51z"></path><path d="m24 22h-5a1 1 0 0 0 0 2h5a1 1 0 0 0 0-2z"></path></g></svg>